[Header]
FileType HTR
DataType HTRS
FileVersion 1
NumSegments 64
NumFrames 3
DataFrameRate 24
EulerRotationOrder ZYX
CalibrationUnits mm
RotationUnits Degrees
GlobalAxisofGravity Y
BoneLengthAxis Y
ScaleFactor 1.0
[SegmentNames&Hierarchy]
Hips	GLOBAL
Spine	Hips
Spine1	Spine
Spine2	Spine1
Neck	Spine2
Head	Neck
LeftEye	Head
RightEye	Head
LeftShoulder	Spine2
LeftArm	LeftShoulder
LeftForeArm	LeftArm
LeftHand	LeftForeArm
LeftHandThumb1	LeftHand
LeftHandThumb2	LeftHandThumb1
LeftHandThumb3	LeftHandThumb2
LeftHandThumb4	LeftHandThumb3
LeftHandIndex1	LeftHand
LeftHandIndex2	LeftHandIndex1
LeftHandIndex3	LeftHandIndex2
LeftHandIndex4	LeftHandIndex3
LeftHandMiddle1	LeftHand
LeftHandMiddle2	LeftHandMiddle1
LeftHandMiddle3	LeftHandMiddle2
LeftHandMiddle4	LeftHandMiddle3
LeftHandRing1	LeftHand
LeftHandRing2	LeftHandRing1
LeftHandRing3	LeftHandRing2
LeftHandRing4	LeftHandRing3
LeftHandPinky1	LeftHand
LeftHandPinky2	LeftHandPinky1
LeftHandPinky3	LeftHandPinky2
LeftHandPinky4	LeftHandPinky3
RightShoulder	Spine2
RightArm	RightShoulder
RightForeArm	RightArm
RightHand	RightForeArm
RightHandPinky1	RightHand
RightHandPinky2	RightHandPinky1
RightHandPinky3	RightHandPinky2
RightHandPinky4	RightHandPinky3
RightHandRing1	RightHand
RightHandRing2	RightHandRing1
RightHandRing3	RightHandRing2
RightHandRing4	RightHandRing3
RightHandMiddle1	RightHand
RightHandMiddle2	RightHandMiddle1
RightHandMiddle3	RightHandMiddle2
RightHandMiddle4	RightHandMiddle3
RightHandIndex1	RightHand
RightHandIndex2	RightHandIndex1
RightHandIndex3	RightHandIndex2
RightHandIndex4	RightHandIndex3
RightHandThumb1	RightHand
RightHandThumb2	RightHandThumb1
RightHandThumb3	RightHandThumb2
RightHandThumb4	RightHandThumb3
LeftUpLeg	Hips
LeftLeg	LeftUpLeg
LeftFoot	LeftLeg
LeftToeBase	LeftFoot
RightUpLeg	Hips
RightLeg	RightUpLeg
RightFoot	RightLeg
RightToeBase	RightFoot
[BasePosition]
Hips	0	0	0	0	0	0	1
Spine	0	0	0	0	0	0	1
Spine1	0	0	0	0	0	0	1
Spine2	0	0	0	0	0	0	1
Neck	0	0	0	0	0	0	1
Head	0	0	0	0	0	0	1
LeftEye	0	0	0	0	0	0	1
RightEye	0	0	0	0	0	0	1
LeftShoulder	0	0	0	0	0	0	1
LeftArm	0	0	0	0	0	0	1
LeftForeArm	0	0	0	0	0	0	1
LeftHand	0	0	0	0	0	0	1
LeftHandThumb1	0	0	0	0	0	0	1
LeftHandThumb2	0	0	0	0	0	0	1
LeftHandThumb3	0	0	0	0	0	0	1
LeftHandThumb4	0	0	0	0	0	0	1
LeftHandIndex1	0	0	0	0	0	0	1
LeftHandIndex2	0	0	0	0	0	0	1
LeftHandIndex3	0	0	0	0	0	0	1
LeftHandIndex4	0	0	0	0	0	0	1
LeftHandMiddle1	0	0	0	0	0	0	1
LeftHandMiddle2	0	0	0	0	0	0	1
LeftHandMiddle3	0	0	0	0	0	0	1
LeftHandMiddle4	0	0	0	0	0	0	1
LeftHandRing1	0	0	0	0	0	0	1
LeftHandRing2	0	0	0	0	0	0	1
LeftHandRing3	0	0	0	0	0	0	1
LeftHandRing4	0	0	0	0	0	0	1
LeftHandPinky1	0	0	0	0	0	0	1
LeftHandPinky2	0	0	0	0	0	0	1
LeftHandPinky3	0	0	0	0	0	0	1
LeftHandPinky4	0	0	0	0	0	0	1
RightShoulder	0	0	0	0	0	0	1
RightArm	0	0	0	0	0	0	1
RightForeArm	0	0	0	0	0	0	1
RightHand	0	0	0	0	0	0	1
RightHandPinky1	0	0	0	0	0	0	1
RightHandPinky2	0	0	0	0	0	0	1
RightHandPinky3	0	0	0	0	0	0	1
RightHandPinky4	0	0	0	0	0	0	1
RightHandRing1	0	0	0	0	0	0	1
RightHandRing2	0	0	0	0	0	0	1
RightHandRing3	0	0	0	0	0	0	1
RightHandRing4	0	0	0	0	0	0	1
RightHandMiddle1	0	0	0	0	0	0	1
RightHandMiddle2	0	0	0	0	0	0	1
RightHandMiddle3	0	0	0	0	0	0	1
RightHandMiddle4	0	0	0	0	0	0	1
RightHandIndex1	0	0	0	0	0	0	1
RightHandIndex2	0	0	0	0	0	0	1
RightHandIndex3	0	0	0	0	0	0	1
RightHandIndex4	0	0	0	0	0	0	1
RightHandThumb1	0	0	0	0	0	0	1
RightHandThumb2	0	0	0	0	0	0	1
RightHandThumb3	0	0	0	0	0	0	1
RightHandThumb4	0	0	0	0	0	0	1
LeftUpLeg	0	0	0	0	0	0	1
LeftLeg	0	0	0	0	0	0	1
LeftFoot	0	0	0	0	0	0	1
LeftToeBase	0	0	0	0	0	0	1
RightUpLeg	0	0	0	0	0	0	1
RightLeg	0	0	0	0	0	0	1
RightFoot	0	0	0	0	0	0	1
RightToeBase	0	0	0	0	0	0	1
[Hips]
18	2.083783627	565.6216431	367.7529907	38.38288498	1.505685687	-0.7601801753	1.0
19	2.026031733	579.0968018	390.6640625	41.03056335	1.488762021	-0.7900528312	1.0
20	1.907956362	597.0222168	413.2177734	42.96915436	1.391811132	-0.7600807548	1.0
[Spine]
18	0	101.8159943	1.315000057	9.156281471	-0.7080585957	1.530858517	1.0
19	0	101.8159943	1.315000057	12.56805038	-0.6042144299	1.573339581	1.0
20	0	101.8159943	1.315000057	16.34538078	-0.5001699328	1.504846454	1.0
[Spine1]
18	0	100.8349991	-10.00800037	-5.253158569	-3.429555727e-05	5.802706801e-05	1.0
19	0	100.8349991	-10.00800037	-2.278929472	-3.731877587e-05	5.613046596e-05	1.0
20	0	100.8349991	-10.00800037	0.9697364569	-4.050108691e-05	5.387916826e-05	1.0
[Spine2]
18	0	91	-13.73399925	2.288220882	8.935455043e-09	3.164502971e-07	1.0
19	0	91	-13.73399925	5.050810814	-7.863724782e-09	3.164918212e-07	1.0
20	0	91	-13.73399925	7.825789452	-2.471264082e-08	3.156444564e-07	1.0
[Neck]
18	0	166.7169952	-25.16200066	-17.08267784	4.074964011e-07	2.37557785e-07	1.0
19	0	166.7169952	-25.16200066	-16.90382385	4.066675103e-07	2.389564315e-07	1.0
20	0	166.7169952	-25.16200066	-16.3158741	4.039306987e-07	2.435252213e-07	1.0
[Head]
18	0	96.17900085	16.84999847	-39.11535263	-0.2248138338	-0.1263605356	1.0
19	0	96.17900085	16.84999847	-33.18640518	-0.1983963847	-0.1580585837	1.0
20	0	96.17900085	16.84999847	-24.11703491	-0.1562844068	-0.1944302619	1.0
[LeftEye]
18	30.6760006	64.09500122	92.83599854	0	0	0	1.0
19	30.6760006	64.09500122	92.83599854	0	0	0	1.0
20	30.6760006	64.09500122	92.83599854	0	0	0	1.0
[RightEye]
18	-30.6760006	64.09500122	92.83499908	0	0	0	1.0
19	-30.6760006	64.09500122	92.83499908	0	0	0	1.0
20	-30.6760006	64.09500122	92.83499908	0	0	0	1.0
[LeftShoulder]
18	45.70400238	109.4599991	-26.28000069	1.431868315	0.8784526587	10.05249119	1.0
19	45.70400238	109.4599991	-26.28000069	0.6824156642	-3.413260698	12.87639236	1.0
20	45.70400238	109.4599991	-26.28000069	-0.8077304363	-8.030155182	17.39495087	1.0
[LeftArm]
18	105.923996	-5.24600029	-22.32099915	-8.799988747	13.95326424	-29.43882179	1.0
19	105.923996	-5.24600029	-22.32099915	-13.96737671	1.774372935	-36.29369354	1.0
20	105.923996	-5.24600029	-22.32099915	-21.17163658	-12.91107178	-37.04130936	1.0
[LeftForeArm]
18	278.414978	-0.0009999999311	0	0.000164080775	-88.59235382	-0.0004621141998	1.0
19	278.414978	-0.0009999999311	0	2.973620394e-05	-79.82058716	-0.0002515818633	1.0
20	278.414978	-0.0009999999311	0	4.637184702e-06	-67.24099731	-0.0002208477526	1.0
[LeftHand]
18	283.2879944	0	0	-28.18678856	-0.4085326195	24.54807854	1.0
19	283.2879944	0	0	-22.31952858	-4.030683994	16.38988304	1.0
20	283.2879944	0	0	-15.87443542	-6.698557854	6.592484951	1.0
[LeftHandThumb1]
18	24.6609993	-15.75	26.8239994	2.696307659	-1.08917141	-1.081255674	1.0
19	24.6609993	-15.75	26.8239994	4.693382263	1.159114242	-2.217561483	1.0
20	24.6609993	-15.75	26.8239994	7.072455406	3.04978466	-4.526461601	1.0
[LeftHandThumb2]
18	32.29800034	-18.64699936	18.64699936	69.60713196	51.59176636	50.36507797	1.0
19	32.29800034	-18.64699936	18.64699936	72.2795639	51.87999344	52.66638947	1.0
20	32.29800034	-18.64699936	18.64699936	75.19143677	52.11867142	55.17925644	1.0
[LeftHandThumb3]
18	26.52600098	-15.31499958	15.31499958	44.04620743	46.23667526	40.2339592	1.0
19	26.52600098	-15.31499958	15.31499958	38.58540344	43.98686981	36.61585236	1.0
20	26.52600098	-15.31499958	15.31499958	33.00322342	41.03882217	33.0627594	1.0
[LeftHandThumb4]
18	19.54599953	-11.28499985	11.28499985	0	0	0	1.0
19	19.54599953	-11.28499985	11.28499985	0	0	0	1.0
20	19.54599953	-11.28499985	11.28499985	0	0	0	1.0
[LeftHandIndex1]
18	91.09299469	-5.170999527	22.60099792	-5.67476368	18.37545013	-69.44163513	1.0
19	91.09299469	-5.170999527	22.60099792	-6.013522625	19.52266312	-72.81082153	1.0
20	91.09299469	-5.170999527	22.60099792	-6.373408794	20.75086212	-76.43676758	1.0
[LeftHandIndex2]
18	36.76399994	0	0	-2.845496416	5.007694244	-59.19142151	1.0
19	36.76399994	0	0	-2.667939425	4.897858143	-57.13505173	1.0
20	36.76399994	0	0	-2.436769724	4.741080284	-54.38404846	1.0
[LeftHandIndex3]
18	28.83100128	0	0	-0.6783803105	2.731905937	-27.88620758	1.0
19	28.83100128	0	0	-0.6688205004	2.713799	-27.68499947	1.0
20	28.83100128	0	0	-0.6900014877	2.753725052	-28.12908936	1.0
[LeftHandIndex4]
18	23.92700005	0	0	0	0	0	1.0
19	23.92700005	0	0	0	0	0	1.0
20	23.92700005	0	0	0	0	0	1.0
[LeftHandMiddle1]
18	95.33399963	0	0	-5.200422287	4.370263577	-62.21143341	1.0
19	95.33399963	0	0	-5.613526344	4.815158367	-66.01416779	1.0
20	95.33399963	0	0	-6.085488319	5.41960907	-70.40336609	1.0
[LeftHandMiddle2]
18	36.98199844	0	0	-3.696025133	5.423407078	-68.52731323	1.0
19	36.98199844	0	0	-3.548053026	5.363081455	-66.95315552	1.0
20	36.98199844	0	0	-3.342452288	5.27129221	-64.73468018	1.0
[LeftHandMiddle3]
18	29.50900078	0	0	-3.88638401	5.49414587	-70.52813721	1.0
19	29.50900078	0	0	-3.445790768	5.318627357	-65.85439301	1.0
20	29.50900078	0	0	-2.899818897	5.039570332	-59.81187057	1.0
[LeftHandMiddle4]
18	28.3390007	0	0	0	0	0	1.0
19	28.3390007	0	0	0	0	0	1.0
20	28.3390007	0	0	0	0	0	1.0
[LeftHandRing1]
18	91.04499817	-0.4390000105	-18.65100098	-5.614639282	-3.48823452	-64.44784546	1.0
19	91.04499817	-0.4390000105	-18.65100098	-5.919238567	-3.330393553	-67.11146545	1.0
20	91.04499817	-0.4390000105	-18.65100098	-6.24696064	-3.129510164	-69.99298096	1.0
[LeftHandRing2]
18	31.54000092	0	0	-3.20321846	5.203573704	-63.20945358	1.0
19	31.54000092	0	0	-2.931403399	5.057749271	-60.17066574	1.0
20	31.54000092	0	0	-2.585246801	4.843634129	-56.16113281	1.0
[LeftHandRing3]
18	29.37700081	0	0	-2.548773289	4.819063187	-55.72803116	1.0
19	29.37700081	0	0	-2.31717205	4.653362751	-52.92362595	1.0
20	29.37700081	0	0	-2.027317524	4.420158386	-49.26052856	1.0
[LeftHandRing4]
18	26.47500038	0	0	0	0	0	1.0
19	26.47500038	0	0	0	0	0	1.0
20	26.47500038	0	0	0	0	0	1.0
[LeftHandPinky1]
18	80.77799988	-4.887000084	-38.06099701	-6.550131321	-16.55909729	-69.43958282	1.0
19	80.77799988	-4.887000084	-38.06099701	-6.823428154	-17.15618515	-71.40709686	1.0
20	80.77799988	-4.887000084	-38.06099701	-7.092499733	-17.69001389	-73.33180237	1.0
[LeftHandPinky2]
18	36	0	0	-3.500694036	5.342810631	-66.4455719	1.0
19	36	0	0	-3.038314581	5.117305279	-61.37609863	1.0
20	36	0	0	-2.436866283	4.741141319	-54.38523102	1.0
[LeftHandPinky3]
18	21.14200211	0	0	-1.694444418	4.110856533	-44.78742981	1.0
19	21.14200211	0	0	-1.635865092	4.051134109	-43.96422958	1.0
20	21.14200211	0	0	-1.582792759	3.995538473	-43.20787048	1.0
[LeftHandPinky4]
18	19.75699997	0	0	0	0	0	1.0
19	19.75699997	0	0	0	0	0	1.0
20	19.75699997	0	0	0	0	0	1.0
[RightShoulder]
18	-45.70000076	109.4620056	-26.28000069	1.431852937	-0.8784593344	-10.052495	1.0
19	-45.70000076	109.4620056	-26.28000069	0.6824023724	3.413257122	-12.87640095	1.0
20	-45.70000076	109.4620056	-26.28000069	-0.8077774644	8.030142784	-17.39494324	1.0
[RightArm]
18	-105.9280014	-5.248000145	-22.32099915	-8.799969673	-13.95324421	29.43901443	1.0
19	-105.9280014	-5.248000145	-22.32099915	-13.96731472	-1.774346709	36.29390335	1.0
20	-105.9280014	-5.248000145	-22.32099915	-21.17145729	12.91111183	37.04155731	1.0
[RightForeArm]
18	-278.414978	0	0	0.0006142060156	88.59226227	0.0004736412957	1.0
19	-278.414978	0	0	-4.038165571e-05	79.82038116	-1.305864134e-05	1.0
20	-278.414978	0	0	-2.971944377e-05	67.24077606	-3.207632471e-05	1.0
[RightHand]
18	-283.2879944	0	0.0009999999311	-26.99897957	0.6278368831	-23.82018089	1.0
19	-283.2879944	0	0.0009999999311	-21.08471298	4.174143791	-15.64146709	1.0
20	-283.2879944	0	0.0009999999311	-14.6037159	6.757081985	-5.829366684	1.0
[RightHandPinky1]
18	-80.76699829	-4.885000229	-38.06000137	-5.658301353	17.71161461	68.60391235	1.0
19	-80.76699829	-4.885000229	-38.06000137	-5.890728951	18.31799126	70.58087921	1.0
20	-80.76699829	-4.885000229	-38.06000137	-6.119184971	18.85956573	72.51596069	1.0
[RightHandPinky2]
18	-36	0	0.0009999999311	-2.783266783	-4.24684	66.48548126	1.0
19	-36	0	0.0009999999311	-2.415941954	-4.067647457	61.42195129	1.0
20	-36	0	0.0009999999311	-1.938064933	-3.76866889	54.43690109	1.0
[RightHandPinky3]
18	-21.14200211	0	0	-1.349005818	-3.26880908	44.84210587	1.0
19	-21.14200211	0	0	-1.302407026	-3.221349716	44.01886749	1.0
20	-21.14200211	0	0	-1.26019311	-3.177150488	43.26240921	1.0
[RightHandPinky4]
18	-19.75699997	0	0	0	0	0	1.0
19	-19.75699997	0	0	0	0	0	1.0
20	-19.75699997	0	0	0	0	0	1.0
[RightHandRing1]
18	-91.03599548	-0.4390000105	-18.65100098	-4.809110641	4.613004208	63.67376709	1.0
19	-91.03599548	-0.4390000105	-18.65100098	-5.060777664	4.471998692	66.3420105	1.0
20	-91.03599548	-0.4390000105	-18.65100098	-5.330451965	4.286522865	69.22840881	1.0
[RightHandRing2]
18	-31.54000092	0	0	-2.548374653	-4.136896133	63.25342178	1.0
19	-31.54000092	0	0	-2.332412243	-4.021071434	60.2178154	1.0
20	-31.54000092	0	0	-2.057296276	-3.850990534	56.21167755	1.0
[RightHandRing3]
18	-29.37700081	0	0	-2.028304815	-3.831492186	55.77887726	1.0
19	-29.37700081	0	0	-1.844198346	-3.699869633	52.97620392	1.0
20	-29.37700081	0	0	-1.613752842	-3.514580727	49.31455612	1.0
[RightHandRing4]
18	-26.47500038	0	0	0	0	0	1.0
19	-26.47500038	0	0	0	0	0	1.0
20	-26.47500038	0	0	0	0	0	1.0
[RightHandMiddle1]
18	-95.32500458	0	0	-4.437928677	-3.261291742	61.49360657	1.0
19	-95.32500458	0	0	-4.776573658	-3.680015326	65.29409027	1.0
20	-95.32500458	0	0	-5.160645485	-4.260547638	69.67953491	1.0
[RightHandMiddle2]
18	-36.98199844	0	0	-2.939867735	-4.311486244	68.56459808	1.0
19	-36.98199844	0	0	-2.822342396	-4.26360178	66.99253845	1.0
20	-36.98199844	0	0	-2.659015894	-4.190663815	64.77685547	1.0
[RightHandMiddle3]
18	-29.50900078	0	0	-3.091073751	-4.369671345	70.56255341	1.0
19	-29.50900078	0	0	-2.741084337	-4.230302334	65.89524841	1.0
20	-29.50900078	0	0	-2.307317257	-4.008669376	59.8594017	1.0
[RightHandMiddle4]
18	-28.3390007	0	0.0009999999311	0	0	0	1.0
19	-28.3390007	0	0.0009999999311	0	0	0	1.0
20	-28.3390007	0	0.0009999999311	0	0	0	1.0
[RightHandIndex1]
18	-91.08300018	-5.167999744	22.60099792	-4.78212595	-17.22086525	68.78738403	1.0
19	-91.08300018	-5.167999744	22.60099792	-5.050806522	-18.35318375	72.13954926	1.0
20	-91.08300018	-5.167999744	22.60099792	-5.333446503	-19.56993866	75.74352264	1.0
[RightHandIndex2]
18	-36.76399994	0	0	-2.264139175	-3.981319904	59.23952484	1.0
19	-36.76399994	0	0	-2.123029232	-3.8940804	57.18487549	1.0
20	-36.76399994	0	0	-1.939262986	-3.769549608	54.43580246	1.0
[RightHandIndex3]
18	-28.83100128	0	0	-0.5403952003	-2.172699928	27.93143082	1.0
19	-28.83100128	0	0	-0.5327807069	-2.158289909	27.7300148	1.0
20	-28.83100128	0	0	-0.5496448874	-2.190037727	28.17458725	1.0
[RightHandIndex4]
18	-23.92700005	0	0	0	0	0	1.0
19	-23.92700005	0	0	0	0	0	1.0
20	-23.92700005	0	0	0	0	0	1.0
[RightHandThumb1]
18	-24.64799881	-15.72700024	26.82600021	1.617726684	3.046500206	1.713588715	1.0
19	-24.64799881	-15.72700024	26.82600021	3.563096523	0.7727438211	2.956027031	1.0
20	-24.64799881	-15.72700024	26.82600021	5.898847103	-1.132078528	5.374644756	1.0
[RightHandThumb2]
18	-32.29800034	-18.64699936	18.64699936	72.25552368	-52.94275665	-53.10897827	1.0
19	-32.29800034	-18.64699936	18.64699936	75.02703094	-53.18458939	-55.50065994	1.0
20	-32.29800034	-18.64699936	18.64699936	78.04112244	-53.37004471	-58.1063385	1.0
[RightHandThumb3]
18	-26.52600098	-15.31399918	15.31399918	52.47685623	-49.12350845	-47.01385498	1.0
19	-26.52600098	-15.31399918	15.31399918	46.36618805	-47.30545807	-42.76306152	1.0
20	-26.52600098	-15.31399918	15.31399918	40.05968475	-44.77000046	-38.50496674	1.0
[RightHandThumb4]
18	-19.54599953	-11.28499985	11.28499985	0	0	0	1.0
19	-19.54599953	-11.28499985	11.28499985	0	0	0	1.0
20	-19.54599953	-11.28499985	11.28499985	0	0	0	1.0
[LeftUpLeg]
18	82.07800293	-67.51699829	-15.99599934	-50.09191513	-6.119755745	8.580132484	1.0
19	82.07800293	-67.51699829	-15.99599934	-52.44682312	-5.411477089	8.932146072	1.0
20	82.07800293	-67.51699829	-15.99599934	-53.83889008	-4.435157299	8.978226662	1.0
[LeftLeg]
18	0	-443.7049866	2.845999956	98.03269958	10.29698467	-5.162985802	1.0
19	0	-443.7049866	2.845999956	97.57691193	10.56826496	-5.762730122	1.0
20	0	-443.7049866	2.845999956	95.83835602	10.51584625	-6.46807003	1.0
[LeftFoot]
18	0	-444.2789917	-29.8219986	-81.19883728	4.697367668	3.542983055	1.0
19	0	-444.2789917	-29.8219986	-71.52307892	4.959426403	3.453692436	1.0
20	0	-444.2789917	-29.8219986	-62.3170929	5.038722992	3.388856649	1.0
[LeftToeBase]
18	0	-87.28699493	107.1060028	-13.92092991	-1.010679611e-07	6.264114631e-07	1.0
19	0	-87.28699493	107.1060028	-24.6945858	8.786756212e-07	-1.277093247e-06	1.0
20	0	-87.28699493	107.1060028	-33.5967598	9.613157772e-07	5.978118338e-07	1.0
[RightUpLeg]
18	-82.07800293	-67.51699829	-15.99599934	-128.4106598	-5.489343166	-16.75728035	1.0
19	-82.07800293	-67.51699829	-15.99599934	-129.2474365	-5.64884901	-15.55682755	1.0
20	-82.07800293	-67.51699829	-15.99599934	-128.7891235	-5.525029182	-14.30527115	1.0
[RightLeg]
18	0	-443.7049866	2.861999989	79.11138153	-9.009149551	1.686523676	1.0
19	0	-443.7049866	2.861999989	79.71997833	-8.873754501	3.471940994	1.0
20	0	-443.7049866	2.861999989	79.68894196	-8.813693047	4.836958885	1.0
[RightFoot]
18	0	-444.2770081	-29.83799934	10.29430771	-10.68506527	6.455616951	1.0
19	0	-444.2770081	-29.83799934	7.529304981	-11.52221203	5.744593143	1.0
20	0	-444.2770081	-29.83799934	4.969408512	-11.7466135	4.787495613	1.0
[RightToeBase]
18	0	-87.28699493	107.1060028	-1.515573604e-05	-2.909377805e-08	-1.999551955e-07	1.0
19	0	-87.28699493	107.1060028	-1.515573604e-05	-2.909377805e-08	-1.999551955e-07	1.0
20	0	-87.28699493	107.1060028	-1.515573604e-05	-2.909377805e-08	-1.999551955e-07	1.0
[EndOfFile]
